<svg width="64" height="64" viewBox="0 0 64 64" fill="none" xmlns="http://www.w3.org/2000/svg">
<path d="M32 3.99976C26.1673 4.00637 20.5753 6.32635 16.451 10.4507C12.3266 14.5751 10.0066 20.167 10 25.9998C10 44.8248 30 59.0423 30.8525 59.6373C31.1888 59.8728 31.5894 59.9992 32 59.9992C32.4106 59.9992 32.8112 59.8728 33.1475 59.6373C34 59.0423 54 44.8248 54 25.9998C53.9934 20.167 51.6734 14.5751 47.549 10.4507C43.4247 6.32635 37.8327 4.00637 32 3.99976ZM32 17.9998C33.5823 17.9998 35.129 18.4689 36.4446 19.348C37.7602 20.2271 38.7855 21.4765 39.391 22.9383C39.9965 24.4001 40.155 26.0086 39.8463 27.5605C39.5376 29.1123 38.7757 30.5378 37.6569 31.6566C36.538 32.7754 35.1126 33.5374 33.5607 33.846C32.0089 34.1547 30.4003 33.9963 28.9385 33.3908C27.4767 32.7853 26.2273 31.7599 25.3482 30.4443C24.4692 29.1287 24 27.582 24 25.9998C24 23.878 24.8429 21.8432 26.3431 20.3429C27.8434 18.8426 29.8783 17.9998 32 17.9998Z" fill="#1A1A1A"/>
</svg>
