<svg width="24" height="23" viewBox="0 0 24 23" fill="none" xmlns="http://www.w3.org/2000/svg">
<path d="M11.4096 1.68998C11.6957 1.12881 11.8388 0.84822 12.033 0.758572C12.202 0.680574 12.3982 0.680574 12.5672 0.758572C12.7614 0.84822 12.9044 1.12881 13.1905 1.68998L15.9048 7.014C15.9893 7.17967 16.0315 7.26251 16.0932 7.32682C16.1479 7.38377 16.2134 7.42991 16.2862 7.46268C16.3684 7.4997 16.4628 7.51306 16.6516 7.53978L22.723 8.399C23.3624 8.48948 23.6821 8.53472 23.83 8.68591C23.9587 8.81746 24.0193 8.99822 23.9948 9.17786C23.9666 9.38434 23.7352 9.60259 23.2723 10.0391L18.8806 14.1806C18.7437 14.3097 18.6753 14.3743 18.6311 14.4511C18.592 14.5191 18.5669 14.5938 18.5572 14.6711C18.5463 14.7583 18.5625 14.8495 18.5948 15.0319L19.631 20.8816C19.7403 21.4986 19.7949 21.8071 19.6922 21.9901C19.6029 22.1494 19.444 22.2611 19.26 22.2941C19.0484 22.3321 18.7623 22.1864 18.1901 21.8951L12.7623 19.1314C12.5932 19.0453 12.5086 19.0022 12.4195 18.9853C12.3407 18.9703 12.2595 18.9703 12.1807 18.9853C12.0916 19.0022 12.007 19.0453 11.8379 19.1314L6.41014 21.8951C5.8379 22.1864 5.55178 22.3321 5.34022 22.2941C5.15615 22.2611 4.99732 22.1494 4.90796 21.9901C4.80526 21.8071 4.85991 21.4986 4.9692 20.8816L6.00543 15.0319C6.03774 14.8495 6.05389 14.7583 6.04296 14.6711C6.03329 14.5938 6.0082 14.5191 5.96909 14.4511C5.92492 14.3743 5.85647 14.3097 5.71957 14.1806L1.32791 10.0391C0.86504 9.60259 0.633607 9.38434 0.605444 9.17786C0.580942 8.99822 0.641475 8.81746 0.770192 8.68591C0.918133 8.53472 1.23781 8.48948 1.87715 8.399L7.94856 7.53978C8.13737 7.51306 8.23178 7.4997 8.31399 7.46268C8.38679 7.42991 8.45233 7.38377 8.50697 7.32682C8.56869 7.26251 8.61092 7.17967 8.69538 7.014L11.4096 1.68998Z" fill="#E6E6E6"/>
</svg>
